<?xml version="1.0" encoding="UTF-8"?>
<svg width="92px" height="192px" viewBox="0 0 92 192" version="1.1" xmlns="http://www.w3.org/2000/svg" xmlns:xlink="http://www.w3.org/1999/xlink">
    <!-- Generator: Sketch 46 (44423) - http://www.bohemiancoding.com/sketch -->
    <title>Fatherly Seahorse</title>
    <desc>Created with Sketch.</desc>
    <defs>
        <polygon id="path-1" points="0.0006 191 91.3396 191 91.3396 0.2737 0.0006 0.2737"></polygon>
    </defs>
    <g id="Symbols" stroke="none" stroke-width="1" fill="none" fill-rule="evenodd">
        <g id="Fatherly-Seahorse">
            <polygon id="Fill-1" fill="#fff" points="12.897 111.133 31.921 111.133 31.921 103.262 12.897 103.262"></polygon>
            <polygon id="Fill-2" fill="#fff" points="12.897 74.43 31.921 74.43 31.921 66.559 12.897 66.559"></polygon>
            <g id="Group-21" transform="translate(0.000000, 0.727000)">
                <mask id="mask-2" fill="white">
                    <use xlink:href="#path-1"></use>
                </mask>
                <g id="Clip-20"></g>
                <path d="M91.3396,35.4027 L88.3736,34.6427 C58.0476,26.9517 52.0666,3.5327 52.0096,3.2987 L51.2846,0.2737 L48.1846,0.2737 C21.6156,0.2737 0.0006,21.8867 0.0006,48.4557 L0.0006,51.2117 L7.8736,51.2117 L7.8736,48.4557 C7.8736,27.2107 24.2456,9.7277 45.3166,8.2467 C47.7966,15.0907 56.7856,33.4677 83.4686,41.4537 L83.4686,43.6947 L31.0406,43.6417 L27.1386,43.9087 L27.2186,49.5037 L28.4566,50.6467 C40.0856,61.4097 45.7956,73.5817 48.5056,84.1747 L3.8176,84.1747 L3.8176,92.0487 L50.0686,92.0487 C51.5566,102.6417 50.2736,110.3407 50.1466,111.0697 C50.1376,111.1787 49.2046,121.1597 44.8926,129.6237 C41.9896,127.6807 38.4106,125.7747 35.1916,123.8757 C33.5266,122.8927 32.1416,121.9127 30.8136,120.9297 L20.1366,120.9297 C24.1046,127.3407 34.4806,132.1427 42.0116,137.1627 C52.5026,144.1597 63.3516,151.3957 63.3516,163.0537 C63.3516,177.8577 52.9806,183.1317 43.2746,183.1317 C34.8476,183.1317 27.9926,176.2787 27.9926,167.8577 C27.9926,161.5547 33.1256,156.4277 39.4326,156.4277 C44.0366,156.4277 47.7836,160.1717 47.7836,164.7727 L47.7836,166.0477 L55.6576,166.0477 L55.6576,164.7727 C55.6576,155.8307 48.3796,148.5547 39.4326,148.5547 C28.7846,148.5547 20.1216,157.2157 20.1216,167.8577 C20.1216,180.6197 30.5076,191.0007 43.2746,191.0007 C60.2516,191.0007 71.2226,180.0317 71.2226,163.0537 C71.2226,149.4667 61.5496,141.0677 51.4556,134.0537 C56.8976,123.9247 57.9396,112.1637 57.9256,112.1637 C58.0616,111.4897 59.6036,103.4057 58.2126,92.0487 L77.4976,92.0487 L77.4976,84.1747 L56.8276,84.1747 C54.5216,74.1037 49.7386,62.5177 40.2346,51.5157 L91.3396,51.5727 L91.3396,35.4027 Z" id="Fill-19" fill="#fff" mask="url(#mask-2)"></path>
            </g>
        </g>
    </g>
</svg>
