<?xml version="1.0" encoding="UTF-8"?>
<svg width="30px" height="25px" viewBox="0 0 30 25" version="1.1" xmlns="http://www.w3.org/2000/svg" xmlns:xlink="http://www.w3.org/1999/xlink">
    <!-- Generator: Sketch 46.1 (44463) - http://www.bohemiancoding.com/sketch -->
    <title>Email</title>
    <desc>Created with Sketch.</desc>
    <defs></defs>
    <g id="Symbols" stroke="none" stroke-width="1" fill="none" fill-rule="evenodd" fill-opacity="0.5">
        <g id="Share-2" transform="translate(-299.000000, -14.000000)" fill="#1C1E1C">
            <g id="Email" transform="translate(299.000000, 14.000000)">
                <path d="M15.5021384,14.5354415 C15.8601384,14.5354415 16.1771384,14.3334415 16.3031384,14.0324415 L22.2081384,0.724441531 C22.2711384,0.583441531 22.2651384,0.420441531 22.1911384,0.284441531 C22.1171384,0.148441531 21.9851384,0.0534415311 21.8331384,0.0284415311 C21.3921384,-0.0455584689 20.9421384,0.0254415311 20.5551384,0.234441531 L1.13813839,10.6864415 C0.694138394,10.9254415 0.359138394,11.3234415 0.194138394,11.8064415 C0.147138394,11.9484415 0.164138394,12.1034415 0.243138394,12.2304415 C0.321138394,12.3574415 0.452138394,12.4434415 0.600138394,12.4644415 L15.3291384,14.5194415 C15.3581384,14.5254415 15.4721384,14.5354415 15.5021384,14.5354415" id="Fill-55"></path>
                <path d="M23.1102361,2.2646757 C23.0192361,2.0966757 22.8322361,1.9806757 22.6492361,2.0026757 C22.4582361,2.0096757 22.2872361,2.1246757 22.2102361,2.2996757 L16.6362361,14.8576757 C16.3582361,15.5236757 15.6742361,15.9706757 14.9362361,15.9706757 C14.8252361,15.9706757 14.7122361,15.9616757 14.5772361,15.9366757 L0.738236134,14.0056757 C0.551236134,13.9796757 0.365236134,14.0606757 0.258236134,14.2156757 C0.150236134,14.3696757 0.138236134,14.5726757 0.228236134,14.7386757 L4.37023613,22.4286757 L3.08223613,22.4286757 C2.80523613,22.4286757 2.58223613,22.6496757 2.58223613,22.9256757 L2.58223613,23.9276757 C2.58223613,24.2046757 2.80523613,24.4286757 3.08223613,24.4286757 L25.0702361,24.4286757 C25.3462361,24.4286757 25.5712361,24.2046757 25.5712361,23.9276757 L25.5712361,22.9256757 C25.5712361,22.6496757 25.3462361,22.4286757 25.0702361,22.4286757 L17.5922361,22.4286757 L28.5272361,16.5386757 C28.9982361,16.2846757 29.3422361,15.8626757 29.4962361,15.3506757 C29.6502361,14.8376757 29.5952361,14.2966757 29.3412361,13.8246757 L23.1102361,2.2646757 Z" id="Fill-57"></path>
            </g>
        </g>
    </g>
</svg>