<?xml version="1.0" encoding="UTF-8"?>
<svg width="29px" height="29px" viewBox="0 0 29 29" version="1.1" xmlns="http://www.w3.org/2000/svg" xmlns:xlink="http://www.w3.org/1999/xlink">
    <!-- Generator: Sketch 46.1 (44463) - http://www.bohemiancoding.com/sketch -->
    <title>FB</title>
    <desc>Created with Sketch.</desc>
    <defs></defs>
    <g id="Symbols" stroke="none" stroke-width="1" fill="none" fill-rule="evenodd" fill-opacity="0.5">
        <g id="Share-2" transform="translate(-48.000000, -12.000000)" fill="#1C1E1C">
            <path d="M49.6005774,41 C48.7163439,41 48,40.2832116 48,39.3993225 L48,13.600565 C48,12.7164509 48.7164564,12 49.6005774,12 L75.3995351,12 C76.2834311,12 77,12.7164509 77,13.600565 L77,39.3993225 C77,40.2833241 76.2833185,41 75.3995351,41 L68.0095803,41 L68.0095803,29.7696018 L71.7791065,29.7696018 L72.3435396,25.3929163 L68.0095803,25.3929163 L68.0095803,22.5986792 C68.0095803,21.3315277 68.3614507,20.4680059 70.1785292,20.4680059 L72.4961256,20.4669931 L72.4961256,16.5524505 C72.0953061,16.4991134 70.7195567,16.3799487 69.1189793,16.3799487 C65.777504,16.3799487 63.4898396,18.4195888 63.4898396,22.1652303 L63.4898396,25.3929163 L59.7106361,25.3929163 L59.7106361,29.7696018 L63.4898396,29.7696018 L63.4898396,41 L49.6005774,41 Z" id="FB"></path>
        </g>
    </g>
</svg>