<svg width="103px" height="27px" viewBox="0 0 103 27" version="1.1" xmlns="http://www.w3.org/2000/svg"
     xmlns:xlink="http://www.w3.org/1999/xlink">
    <!-- Generator: Sketch 46 (44423) - http://www.bohemiancoding.com/sketch -->
    <desc>Created with Sketch.</desc>
    <defs></defs>
    <g id="Page-1" stroke="none" stroke-width="1" fill="none" fill-rule="evenodd">
        <g id="Group-9-Copy" transform="translate(-348.000000, -14.000000)" fill="#1C1E1C">
            <g id="Fatherly-Wordmark" transform="translate(348.000000, 14.000000)">
                <path d="M15.5769599,4.8701669 C15.2573111,3.57044276 13.7135963,1.17805655 12.4608886,1.00116 C11.7622879,0.91233931 10.9755588,0.882918621 10.0447032,0.882918621 L6.40390107,0.882918621 L6.40390107,10.1320014 L8.99542513,10.1320014 C10.4813057,10.1320014 11.2087317,9.57114621 11.5875,9.21642207 C11.9954608,8.83190483 12.3740455,7.59213931 12.4902647,6.49929103 L13.2769938,6.49929103 L13.2769938,14.7983462 L12.4902647,14.7983462 C12.4315125,13.9417945 11.9954608,12.2873462 11.5875,11.8745255 C11.2087317,11.4903807 10.3641684,10.9589462 8.99542513,10.9589462 L6.40390107,10.9589462 L6.40390107,19.9030221 C6.40390107,20.5525117 6.63762478,21.0547117 7.30684938,21.3496634 C7.65605793,21.4976979 8.99542513,21.763229 9.52015597,21.7930221 L9.52015597,22.4428841 L0.114291444,22.4428841 L0.114291444,21.7930221 C0.63847148,21.763229 2.03567291,21.6448014 2.41389037,21.4976979 C3.11340909,21.2321669 3.31720588,20.70036 3.31720588,20.0504979 L3.31720588,2.71370483 C3.31720588,2.06347034 3.1422344,1.56201517 2.41389037,1.26650483 C1.86070143,1.03039448 0.63847148,0.764304828 0.114291444,0.734884138 L0.114291444,0.0853944828 L16.3635053,0.0853944828 L16.3635053,4.8701669 L15.5769599,4.8701669 Z"
                      id="Fill-3"></path>
                <path d="M18.5402203,19.0288924 C18.5402203,20.6535476 19.2683807,21.3916717 20.5201704,21.3916717 C22.0350599,21.3916717 22.6752756,20.7122028 23.3742435,19.8262303 L23.4910135,14.6580579 C20.578739,15.5732648 18.5402203,16.4005821 18.5402203,19.0288924 M26.0535287,22.5435476 C24.6847854,22.5435476 23.9568086,21.9234786 23.4910135,20.5649131 L23.4036196,20.5649131 C22.3554431,21.8052372 20.8405537,22.6020166 19.0935929,22.6020166 C17.0842667,22.6020166 15.7158906,21.3624372 15.7158906,19.4718786 C15.7158906,17.0498855 17.113092,16.2233131 18.5695964,15.6622717 C20.2293469,15.0124097 22.2386731,14.5100234 23.4616374,13.8011338 L23.4616374,12.147989 C23.4616374,11.6163683 23.3742435,9.16495448 20.9575073,9.16495448 C19.8507622,9.16495448 19.442985,9.84367862 19.1806196,10.168051 C19.1806196,10.6114097 19.442985,11.2622028 19.442985,11.9111338 C19.442985,12.5319476 18.8024021,13.1814372 17.7542257,13.1814372 C16.7932595,13.1814372 16.4435002,12.41352 16.4435002,11.6452303 C16.4435002,9.87403034 18.918805,8.51472 21.1321116,8.51472 C24.01501,8.51472 26.140739,8.95826483 26.140739,12.8859269 C26.140739,15.4850028 25.9953273,18.5266924 25.9953273,19.5012993 C25.9953273,19.9439131 26.4029209,21.0082717 27.3640706,21.0082717 C28.3250367,21.0082717 28.4124307,19.8560234 28.4989066,18.7331959 L29.1405911,18.7331959 C28.965436,21.48012 27.8592417,22.5435476 26.0535287,22.5435476"
                      id="Fill-5"></path>
                <path d="M35.1587654,22.5435476 C32.7704873,22.5435476 31.6349169,21.0961614 31.6349169,18.467851 L31.6349169,10.2278234 L28.8390453,10.2278234 L28.8390453,9.54816828 C33.2922806,9.54816828 33.242892,4.75092 33.242892,4.75092 L34.226441,4.75092 L34.226441,8.95826483 L38.2160845,8.95826483 L38.2160845,10.2278234 L34.2560007,10.2278234 L34.2560007,18.1136855 C34.2560007,19.7964372 34.7217957,20.8898441 36.497949,20.8898441 C37.9834624,20.8898441 38.100416,19.7083614 38.2744695,18.5864648 L38.9150524,18.5864648 C38.6822467,20.7122028 37.3133198,22.5435476 35.1587654,22.5435476"
                      id="Fill-7"></path>
                <path d="M48.710793,22.2478697 L48.710793,21.6575938 C49.2349731,21.6281731 49.6717592,21.5691455 50.0795364,21.4509041 C50.6325417,21.273449 50.8658982,20.771249 50.8658982,20.1219455 L50.8658982,13.0040007 C50.8658982,10.9661524 49.7009517,9.84369724 48.4484276,9.84369724 C46.3230658,9.84369724 45.1292939,11.2318697 44.8089107,11.9111524 L44.8089107,19.9742834 C44.8089107,20.6235869 45.0705417,21.0669455 45.5943545,21.3028697 C46.0320586,21.5095593 46.4394686,21.6281731 46.9634651,21.6575938 L46.9634651,22.2478697 L40.0912904,22.2478697 L40.0912904,21.6575938 C40.6151032,21.6281731 40.9644954,21.5691455 41.3726398,21.4509041 C41.9256451,21.273449 42.1584508,20.771249 42.1584508,20.1219455 L42.1584508,3.28716621 C42.1002494,2.66728345 41.8380676,1.89862138 41.3726398,1.57387655 C41.0234312,1.33832483 39.945695,1.13107655 39.4213314,1.10184207 L39.4213314,0.539869655 L44.6049303,0.215497241 L44.8089107,0.42200069 L44.8089107,10.9367317 L44.8671121,10.9367317 C45.9736736,9.84369724 47.1380693,8.51473862 49.6433011,8.51473862 C52.3506772,8.51473862 53.544449,10.3747593 53.544449,13.1814559 L53.544449,20.0031455 C53.544449,20.65338 53.7772547,21.0959938 54.3012512,21.3321041 C54.7095791,21.5095593 55.0586041,21.6281731 55.5833349,21.6575938 L55.5833349,22.2478697 L48.710793,22.2478697 Z"
                      id="Fill-9"></path>
                <path d="M62.7332975,9.19437517 C60.8987592,9.19437517 59.6170426,11.0251614 59.5298323,13.8011338 L65.3832066,13.7422924 C65.3832066,11.6163683 64.9467877,9.19437517 62.7332975,9.19437517 M63.0830569,22.6020166 C58.6856362,22.6020166 56.6469339,19.3541959 56.6469339,15.4555821 C56.6469339,11.9111338 58.8890658,8.51472 62.7626736,8.51472 C66.7521335,8.51472 68.2080872,11.1731959 68.2080872,14.1854648 L68.2080872,14.4513683 L59.5298323,14.4513683 L59.5298323,14.7759269 C59.5298323,18.5864648 60.7529802,21.302851 63.8692351,21.302851 C66.1405595,21.302851 66.8683528,20.4760924 67.9756487,18.6741683 L68.4996451,19.0288924 C67.4801103,21.1259545 65.5293528,22.6020166 63.0830569,22.6020166"
                      id="Fill-11"></path>
                <path d="M79.2810278,12.2359717 C78.3490706,12.2359717 77.7088549,11.8225924 77.7088549,10.8185648 C77.7088549,10.5228683 77.9126517,10.2867579 77.9126517,9.90317172 C76.4273219,9.90317172 75.3494021,11.173289 75.0007444,11.8225924 L75.0007444,19.9743579 C75.0007444,20.6236614 75.2623754,21.0960683 75.7872898,21.3027579 C76.2813594,21.5096338 77.1264734,21.6280614 77.6794788,21.6576683 L77.6794788,22.2479441 L70.2825733,22.2479441 L70.2825733,21.6576683 C70.8073041,21.6280614 71.1561455,21.56922 71.563739,21.4507924 C72.1174788,21.2733372 72.3506517,20.7713234 72.3506517,20.12202 L72.3506517,11.6451372 C72.2920831,11.0250683 72.0302684,10.4051855 71.563739,10.0806269 C71.2145305,9.84358552 70.6615251,9.63689586 70.1367943,9.60766138 L70.1367943,9.04680621 L74.7960296,8.72113034 L75.0007444,8.92856483 L75.0007444,10.93662 L75.0591294,10.93662 C76.3111027,9.31196483 77.7672399,8.57384069 78.9903879,8.57384069 C79.892969,8.57384069 80.824559,9.40097172 80.824559,10.3748338 C80.824559,11.4092131 80.2715537,12.2359717 79.2810278,12.2359717"
                      id="Fill-13"></path>
                <path d="M81.3153421,22.2478697 L81.3153421,21.6575938 C81.8393385,21.6281731 82.1889143,21.5691455 82.5966914,21.4509041 C83.1498804,21.273449 83.3823189,20.771249 83.3823189,20.1219455 L83.3823189,3.37635931 C83.3244847,2.69614552 83.0624865,2.01723517 82.5966914,1.69211793 C82.2469321,1.45563517 81.0823528,1.13107655 80.5576219,1.10184207 L80.5576219,0.539869655 L85.8287984,0.215497241 L86.0329624,0.42200069 L86.0329624,19.9439317 C86.0329624,20.5937938 86.2945934,21.0669455 86.8193242,21.3028697 C87.2562939,21.5095593 87.5757592,21.6281731 88.1003064,21.6575938 L88.1003064,22.2478697 L81.3153421,22.2478697 Z"
                      id="Fill-15"></path>
                <path d="M100.770739,11.1136469 C100.100963,12.6790883 98.7030273,16.1341572 97.5672733,18.8808952 C96.7812786,20.8602745 96.1476725,22.4450814 96.0529346,22.6906883 C94.3784961,27.074371 93.6479488,26.9034331 91.9009881,26.9034331 C91.1140754,26.9034331 89.7455157,26.3712538 89.7455157,24.8951917 C89.7455157,24.1270883 90.3051307,23.3198814 91.3242982,23.3198814 C91.9656155,23.3198814 92.8390041,23.6978814 92.8390041,24.8793641 L92.8390041,25.7752055 C94.2712733,25.7871228 95.3249578,22.5435848 95.3249578,22.5435848 C93.286439,17.3158262 92.5876547,15.750571 90.6367135,10.966171 C90.2867706,10.1394124 89.3261717,9.63702621 88.4810576,9.51915724 L88.4810576,8.89908828 L94.8591627,8.89908828 L94.8591627,9.57818483 C94.1899381,9.60760552 93.286439,9.7260331 93.286439,10.19844 C93.286439,10.2278607 93.3450077,10.4641572 93.4904194,10.818509 C94.043792,12.3254814 95.5285709,15.8688124 96.7223428,18.9404814 L96.7812786,18.9404814 C97.8882073,16.2523986 98.7030273,14.303371 99.8094052,11.3799228 C99.8975335,11.14344 99.984193,10.7887159 99.984193,10.5526055 C99.984193,9.96177103 98.3532679,9.54857793 97.8882073,9.48936414 L97.8882073,8.89908828 L102.925476,8.89908828 L102.925476,9.45919862 C102.372838,9.54857793 101.178699,10.2574676 100.770739,11.1136469"
                      id="Fill-17"></path>
            </g>
        </g>
    </g>
</svg>
